# xmcd
#
# Track frame offsets:
# 150
# 16696
# 32730
# 46796
# 62613
# 73368
# 85601
# 100271
# 117299
# 133191
# 148243
# 161352
# 174037
# 191535
# 207310
#
# Disc length: 2962 seconds
#
#
# Revision: 0
# Processed by: cddbd v1.5.2PL0 Copyright (c) Steve Scherf et al.
# Submitted via: FreeRIP 2.945 
#
DISCID=c70b900f
DTITLE=Baitaca - Marca de Campo
DYEAR=1900
DGENRE=
TTITLE0=Marca de Campo
TTITLE1=Perdido de um pai pra Filho
TTITLE2=Pra Ser Campeiro
TTITLE3=Secretário de Obra
TTITLE4=Mal Falquejado
TTITLE5=Galpão Criolo
TTITLE6=Tropeando o Passado
TTITLE7=Coiceando a Cola
TTITLE8=Surungo de Grota
TTITLE9=Pra que Eu Quero Voltar
TTITLE10=Pinto Papudo
TTITLE11=Vivo Contente por Sentir Saudade
TTITLE12=Andejo
TTITLE13=Campereada
TTITLE14=Bugio Foragido
EXTD=
EXTT0=
EXTT1=
EXTT2=
EXTT3=
EXTT4=
EXTT5=
EXTT6=
EXTT7=
EXTT8=
EXTT9=
EXTT10=
EXTT11=
EXTT12=
EXTT13=
EXTT14=
PLAYORDER=
